<?xml version="1.0" encoding="UTF-8"?>
<svg id="Capa_2" data-name="Capa 2" xmlns="http://www.w3.org/2000/svg" viewBox="0 0 2730.74 468.95">
  <defs>
    <style>
      .cls-1 {
        fill: #01101e;
      }

      .cls-2 {
        fill: #313852;
      }
    </style>
  </defs>
  <g id="Capa_1-2" data-name="Capa 1">
    <g>
      <g>
        <path class="cls-1" d="M434.11,127.29l-169.49,284.72h-30.82L64.31,129.3v339.65H0V0h54.93l195.62,329.6L443.49,0h54.93"/>
        <path class="cls-1" d="M434.11,127.29l-169.49,284.72h-30.82L64.31,129.3v339.65H0V0h54.93l195.62,329.6L443.49,0h54.93"/>
        <path class="cls-1" d="M434.11,127.29l-169.49,284.72h-30.82L64.31,129.3v339.65H0V0h54.93l195.62,329.6L443.49,0h54.93"/>
        <path class="cls-1" d="M264.62,412.01h-30.82L64.31,129.3v339.65H0V0h54.93l195.62,329.6L443.49,0h54.93"/>
        <path class="cls-2" d="M348.29,373.13v95.82h66.99v-142.69h115.9c10.05,0,20.1-.67,29.48-1.34l101.16,144.03h73.02l-111.21-157.43c65.65-23.45,103.17-75.7,103.17-148.05,0-94.65-63.68-154.56-170.57-162.54l-28.98,57.36h1.93c85.75,0,130.64,38.19,130.64,105.18s-44.88,105.85-130.64,105.85h-113.89"/>
      </g>
      <g>
        <g>
          <path class="cls-1" d="M1309.32,321.19l-.25-114.96-56.99,95.14h-14.37l-56.99-93.65v113.47h-30.72v-173.43h26.51l68.87,114.95,67.64-114.95h26.51l.25,173.43h-30.47Z"/>
          <path class="cls-1" d="M1506.05,243.64v77.55h-29.23v-16.1c-7.44,11.4-21.8,17.84-41.62,17.84-30.23,0-49.3-16.6-49.3-39.64s14.86-39.4,55-39.4h34.19v-1.98c0-18.09-10.9-28.74-32.95-28.74-14.87,0-30.23,4.96-40.14,13.13l-12.14-22.54c14.12-10.9,34.69-16.35,55.99-16.35,38.16,0,60.21,18.09,60.21,56.24ZM1475.08,279.81v-15.36h-31.96c-21.06,0-26.75,7.93-26.75,17.59,0,11.15,9.41,18.34,25.27,18.34s28.25-6.94,33.45-20.57Z"/>
          <path class="cls-1" d="M1633.9,187.4v29.49c-2.73-.5-4.95-.75-7.18-.75-23.53,0-38.4,13.88-38.4,40.88v64.17h-30.97v-132.3h29.49v19.33c8.92-13.88,25.02-20.81,47.07-20.81Z"/>
          <path class="cls-1" d="M1659.68,255.04c0-39.64,29.73-67.64,71.6-67.64,25.77,0,46.33,10.66,56.49,30.72l-23.78,13.87c-7.93-12.64-19.82-18.34-32.95-18.34-22.79,0-40.14,15.86-40.14,41.38s17.34,41.38,40.14,41.38c13.13,0,25.02-5.7,32.95-18.34l23.78,13.88c-10.16,19.82-30.72,30.97-56.49,30.97-41.87,0-71.6-28.24-71.6-67.88Z"/>
          <path class="cls-1" d="M1813.3,255.04c0-39.64,29.73-67.64,70.36-67.64s70.61,28,70.61,67.64-29.48,67.88-70.61,67.88-70.36-28.24-70.36-67.88ZM1923.05,255.04c0-25.27-16.85-41.38-39.4-41.38s-39.14,16.11-39.14,41.38,16.85,41.38,39.14,41.38,39.4-16.1,39.4-41.38Z"/>
          <path class="cls-1" d="M2169.04,329.24l-35.43-50.79c-2.23.25-4.46.25-6.69.25h-39.14v50.54h-32.21v-173.43h71.36c45.58,0,73.83,23.29,73.83,61.69,0,26.27-13.38,45.59-36.92,54.75l39.89,56.99h-34.69ZM2125.44,183.07h-37.66v69.12h37.66c28.24,0,42.86-12.88,42.86-34.69s-14.62-34.43-42.86-34.43Z"/>
          <path class="cls-1" d="M2234.46,263.09c0-39.64,29.73-67.64,70.36-67.64s70.61,28,70.61,67.64-29.48,67.88-70.61,67.88-70.36-28.24-70.36-67.88ZM2344.22,263.09c0-25.27-16.85-41.38-39.4-41.38s-39.14,16.11-39.14,41.38,16.85,41.38,39.14,41.38,39.4-16.1,39.4-41.38Z"/>
          <path class="cls-1" d="M2401.7,316.11l11.89-23.53c11.64,7.68,29.48,13.13,46.08,13.13,19.57,0,27.75-5.45,27.75-14.62,0-25.27-81.76-1.49-81.76-54.26,0-25.02,22.55-41.38,58.22-41.38,17.59,0,37.66,4.21,49.55,11.4l-11.89,23.53c-12.64-7.43-25.27-9.91-37.9-9.91-18.83,0-27.75,6.19-27.75,14.86,0,26.75,81.76,2.97,81.76,54.75,0,24.77-22.79,40.88-59.96,40.88-22.05,0-44.1-6.44-55.99-14.86Z"/>
          <path class="cls-1" d="M2540.95,316.11l11.89-23.53c11.64,7.68,29.48,13.13,46.08,13.13,19.57,0,27.75-5.45,27.75-14.62,0-25.27-81.76-1.49-81.76-54.26,0-25.02,22.55-41.38,58.22-41.38,17.59,0,37.66,4.21,49.55,11.4l-11.89,23.53c-12.64-7.43-25.27-9.91-37.9-9.91-18.83,0-27.75,6.19-27.75,14.86,0,26.75,81.76,2.97,81.76,54.75,0,24.77-22.79,40.88-59.96,40.88-22.05,0-44.1-6.44-55.99-14.86Z"/>
          <path class="cls-1" d="M2691.1,156.56c0-10.4,8.42-18.58,19.82-18.58s19.82,7.68,19.82,17.84c0,10.9-8.18,19.32-19.82,19.32s-19.82-8.18-19.82-18.58ZM2695.31,196.94h30.97v132.3h-30.97v-132.3Z"/>
        </g>
        <rect class="cls-1" x="945.44" y="17.96" width="24.26" height="433.02"/>
      </g>
    </g>
  </g>
</svg>