<?xml version="1.0" encoding="UTF-8"?>
<svg id="Capa_2" data-name="Capa 2" xmlns="http://www.w3.org/2000/svg" viewBox="0 0 1880.17 657.56">
  <defs>
    <style>
      .cls-1 {
        fill: #01101e;
      }

      .cls-2 {
        opacity: .57;
      }

      .cls-3 {
        fill: #313852;
      }
    </style>
  </defs>
  <g id="Capa_1-2" data-name="Capa 1">
    <g>
      <g>
        <path class="cls-1" d="M529.66,198l-206.8,347.38h-37.6L78.47,200.45v414.41H0V42.7h67.03l238.67,402.15L541.1,42.7h67.02"/>
        <path class="cls-1" d="M529.66,198l-206.8,347.38h-37.6L78.47,200.45v414.41H0V42.7h67.03l238.67,402.15L541.1,42.7h67.02"/>
        <path class="cls-1" d="M529.66,198l-206.8,347.38h-37.6L78.47,200.45v414.41H0V42.7h67.03l238.67,402.15L541.1,42.7h67.02"/>
        <path class="cls-1" d="M322.86,545.38h-37.6L78.47,200.45v414.41H0V42.7h67.03l238.67,402.15L541.1,42.7h67.02"/>
        <path class="cls-3" d="M424.94,497.95v116.91h81.74v-174.1h141.41c12.26,0,24.52-.82,35.96-1.63l123.42,175.74h89.09l-135.68-192.08c80.1-28.61,125.88-92.36,125.88-180.64,0-115.48-77.69-188.58-208.11-198.31l-35.36,69.99h2.35c104.62,0,159.39,46.59,159.39,128.33s-54.76,129.15-159.39,129.15h-138.95"/>
      </g>
      <g>
        <g>
          <path class="cls-1" d="M1354.19,252.17l-.2-93.75-46.47,77.59h-11.72l-46.47-76.38v92.54h-25.05V110.74h21.62l56.17,93.75,55.16-93.75h21.62l.2,141.44h-24.85Z"/>
          <path class="cls-1" d="M1514.63,188.93v63.24h-23.84v-13.13c-6.06,9.29-17.78,14.55-33.95,14.55-24.65,0-40.21-13.54-40.21-32.33s12.12-32.13,44.86-32.13h27.88v-1.61c0-14.75-8.89-23.44-26.87-23.44-12.13,0-24.65,4.04-32.73,10.71l-9.9-18.38c11.52-8.89,28.29-13.34,45.66-13.34,31.12,0,49.1,14.75,49.1,45.87ZM1489.37,218.43v-12.52h-26.06c-17.17,0-21.82,6.46-21.82,14.34,0,9.09,7.68,14.95,20.61,14.95s23.04-5.66,27.28-16.77Z"/>
          <path class="cls-1" d="M1618.89,143.06v24.05c-2.22-.41-4.04-.61-5.86-.61-19.19,0-31.32,11.32-31.32,33.34v52.33h-25.26v-107.9h24.05v15.76c7.27-11.32,20.41-16.97,38.39-16.97Z"/>
          <path class="cls-1" d="M1639.92,198.22c0-32.33,24.24-55.16,58.39-55.16,21.01,0,37.78,8.69,46.07,25.06l-19.4,11.31c-6.47-10.31-16.17-14.95-26.87-14.95-18.59,0-32.73,12.93-32.73,33.74s14.14,33.74,32.73,33.74c10.71,0,20.41-4.65,26.87-14.95l19.4,11.32c-8.28,16.16-25.05,25.25-46.07,25.25-34.15,0-58.39-23.03-58.39-55.36Z"/>
          <path class="cls-1" d="M1765.2,198.22c0-32.33,24.24-55.16,57.38-55.16s57.59,22.83,57.59,55.16-24.04,55.36-57.59,55.36-57.38-23.03-57.38-55.36ZM1854.71,198.22c0-20.61-13.74-33.74-32.13-33.74s-31.92,13.14-31.92,33.74,13.74,33.74,31.92,33.74,32.13-13.13,32.13-33.74Z"/>
          <path class="cls-1" d="M1316.81,450.37l-28.9-41.42c-1.82.2-3.64.2-5.45.2h-31.92v41.22h-26.27v-141.44h58.19c37.18,0,60.21,18.99,60.21,50.31,0,21.42-10.91,37.18-30.11,44.65l32.53,46.47h-28.29ZM1281.25,331.16h-30.71v56.37h30.71c23.03,0,34.95-10.51,34.95-28.29s-11.92-28.08-34.95-28.08Z"/>
          <path class="cls-1" d="M1370.16,396.42c0-32.33,24.24-55.16,57.38-55.16s57.59,22.83,57.59,55.16-24.04,55.36-57.59,55.36-57.38-23.03-57.38-55.36ZM1459.67,396.42c0-20.61-13.74-33.74-32.13-33.74s-31.92,13.14-31.92,33.74,13.74,33.74,31.92,33.74,32.13-13.13,32.13-33.74Z"/>
          <path class="cls-1" d="M1506.55,439.66l9.7-19.19c9.5,6.26,24.04,10.71,37.58,10.71,15.96,0,22.63-4.45,22.63-11.92,0-20.61-66.68-1.21-66.68-44.25,0-20.41,18.39-33.74,47.48-33.74,14.34,0,30.71,3.44,40.41,9.29l-9.7,19.19c-10.31-6.06-20.61-8.08-30.91-8.08-15.36,0-22.63,5.05-22.63,12.12,0,21.82,66.68,2.42,66.68,44.65,0,20.2-18.59,33.34-48.9,33.34-17.98,0-35.96-5.25-45.66-12.12Z"/>
          <path class="cls-1" d="M1620.12,439.66l9.7-19.19c9.5,6.26,24.04,10.71,37.58,10.71,15.96,0,22.63-4.45,22.63-11.92,0-20.61-66.68-1.21-66.68-44.25,0-20.41,18.39-33.74,47.48-33.74,14.34,0,30.71,3.44,40.41,9.29l-9.7,19.19c-10.31-6.06-20.61-8.08-30.91-8.08-15.36,0-22.63,5.05-22.63,12.12,0,21.82,66.68,2.42,66.68,44.65,0,20.2-18.59,33.34-48.9,33.34-17.98,0-35.96-5.25-45.66-12.12Z"/>
          <path class="cls-1" d="M1742.57,309.54c0-8.49,6.87-15.15,16.17-15.15s16.17,6.27,16.17,14.55c0,8.89-6.67,15.76-16.17,15.76s-16.17-6.67-16.17-15.15ZM1746,342.47h25.26v107.9h-25.26v-107.9Z"/>
        </g>
        <rect class="cls-1" x="1026.3" y="0" width="24.26" height="657.56"/>
        <g class="cls-2">
          <path class="cls-1" d="M1252.6,520.13h5.82l28.13,70.31h-5.93l-9.04-22.7h-32.14l-9.04,22.7h-5.93l28.13-70.31ZM1255.51,526.86l-14.36,36.26h28.73l-14.36-36.26Z"/>
          <path class="cls-1" d="M1340.7,520.13c10.54,0,20.39,5.22,20.39,17.48,0,6.73-3.01,12.45-9.64,15.67,8.14,2.61,13.06,8.84,13.06,17.48,0,13.76-11.15,19.69-23.3,19.69h-25.61v-70.31h25.11ZM1321.02,524.55v26.62h19.69c9.44,0,14.96-4.62,14.96-13.26,0-9.34-7.64-13.36-15.77-13.36h-18.88ZM1321.11,555.58v30.33h19.79c9.44,0,17.88-4.92,17.88-15.26,0-9.74-6.93-15.07-17.68-15.07h-19.99Z"/>
          <path class="cls-1" d="M1461.05,555.28c0,19.49-12.35,36.66-33.65,36.66s-33.75-17.18-33.75-36.66,12.35-36.66,33.75-36.66,33.65,17.18,33.65,36.66ZM1399.38,555.28c0,16.37,9.94,31.74,28.02,31.74s27.92-15.37,27.92-31.74-9.95-31.84-27.92-31.84-28.02,15.37-28.02,31.84Z"/>
          <path class="cls-1" d="M1524.25,556.19h32.84v34.25h-4.62l-.4-18.28c-4.02,11.35-13.26,19.79-27.62,19.79-21.2,0-33.65-17.08-33.65-36.66s12.45-36.66,33.65-36.66c16.57,0,29.12,10.05,31.94,24.91h-5.83c-2.41-12.26-12.65-20.09-26.21-20.09-17.78,0-27.92,15.57-27.92,31.84s10.14,31.84,28.12,31.84c15.77,0,24.51-11.55,26.21-26.12h-26.51v-4.82Z"/>
          <path class="cls-1" d="M1614.66,520.13h5.82l28.13,70.31h-5.93l-9.04-22.7h-32.14l-9.04,22.7h-5.93l28.13-70.31ZM1617.57,526.86l-14.36,36.26h28.73l-14.36-36.26Z"/>
          <path class="cls-1" d="M1733.7,555.28c0,20.49-14.76,35.15-34.95,35.15h-21.09v-70.31h21.09c20.19,0,34.95,14.66,34.95,35.15ZM1683.18,524.85v60.87h15.37c17.68,0,29.83-12.75,29.83-30.43s-12.15-30.44-29.83-30.44h-15.37Z"/>
          <path class="cls-1" d="M1830.84,555.28c0,19.49-12.35,36.66-33.65,36.66s-33.75-17.18-33.75-36.66,12.35-36.66,33.75-36.66,33.65,17.18,33.65,36.66ZM1769.17,555.28c0,16.37,9.94,31.74,28.02,31.74s27.92-15.37,27.92-31.74-9.95-31.84-27.92-31.84-28.02,15.37-28.02,31.84Z"/>
        </g>
      </g>
    </g>
  </g>
</svg>