<?xml version="1.0" encoding="UTF-8"?>
<svg id="Capa_2" data-name="Capa 2" xmlns="http://www.w3.org/2000/svg" viewBox="0 0 1324.52 1261.79">
  <defs>
    <style>
      .cls-1 {
        opacity: .74;
      }

      .cls-2 {
        fill: #c7d9e5;
      }
    </style>
  </defs>
  <g id="Capa_1-2" data-name="Capa 1">
    <g>
      <g>
        <path class="cls-2" d="M782.48,229.43l-305.5,513.2h-55.55L115.92,233.05v612.22H0V0h99.02l352.6,594.1L799.38,0h99.02"/>
        <path class="cls-2" d="M782.48,229.43l-305.5,513.2h-55.55L115.92,233.05v612.22H0V0h99.02l352.6,594.1L799.38,0h99.02"/>
        <path class="cls-2" d="M782.48,229.43l-305.5,513.2h-55.55L115.92,233.05v612.22H0V0h99.02l352.6,594.1L799.38,0h99.02"/>
        <path class="cls-2" d="M782.48,229.43l-305.5,513.2h-55.55L115.92,233.05v612.22H0V0h99.02l352.6,594.1L799.38,0h99.02"/>
        <path class="cls-2" d="M627.78,672.55v172.72h120.75v-257.2h208.9c18.11,0,36.23-1.21,53.13-2.42l182.34,259.62h131.62l-200.45-283.77c118.34-42.26,185.96-136.45,185.96-266.86,0-170.61-114.78-278.59-307.45-292.97l-52.24,103.39h3.47c154.56,0,235.47,68.83,235.47,189.58s-80.9,190.79-235.47,190.79h-205.28"/>
      </g>
      <g>
        <path class="cls-2" d="M164.74,964.71v146.32h-14.84v-117.05l-57.48,98.45h-7.32l-57.48-97.82v116.43h-14.84v-146.32h12.75l63.54,108.48,62.92-108.48h12.75Z"/>
        <path class="cls-2" d="M302.05,1042.89v68.14h-14.21v-17.14c-6.69,11.29-19.65,18.19-37.83,18.19-24.87,0-40.13-12.96-40.13-31.98,0-16.93,10.87-31.15,42.43-31.15h34.91v-6.69c0-18.81-10.66-29.05-31.14-29.05-14.21,0-27.59,5.02-36.58,12.96l-6.69-11.08c11.08-9.41,27.38-14.84,44.73-14.84,28.43,0,44.52,14.22,44.52,42.64ZM287.21,1078v-17.97h-34.49c-21.32,0-28.22,8.36-28.22,19.65,0,12.75,10.24,20.69,27.8,20.69s29.05-7.94,34.91-22.37Z"/>
        <path class="cls-2" d="M407.59,1000.25v14.42c-1.25,0-2.51-.21-3.55-.21-22.99,0-37,14.63-37,40.55v56.02h-14.84v-109.94h14.21v21.53c6.9-14.63,20.9-22.37,41.18-22.37Z"/>
        <path class="cls-2" d="M432.04,1056.06c0-32.82,23.83-55.81,56.65-55.81,18.6,0,34.28,7.32,43.06,21.74l-11.08,7.53c-7.52-11.08-19.23-16.3-31.98-16.3-24.04,0-41.6,17.14-41.6,42.85s17.56,42.85,41.6,42.85c12.75,0,24.46-5.02,31.98-16.09l11.08,7.53c-8.78,14.21-24.46,21.74-43.06,21.74-32.82,0-56.65-23.2-56.65-56.02Z"/>
        <path class="cls-2" d="M557.65,1056.06c0-32.61,23.83-55.81,56.02-55.81s55.81,23.2,55.81,55.81-23.62,56.02-55.81,56.02-56.02-23.41-56.02-56.02ZM654.43,1056.06c0-25.71-17.35-42.85-40.76-42.85s-40.97,17.14-40.97,42.85,17.56,42.85,40.97,42.85,40.76-17.14,40.76-42.85Z"/>
        <path class="cls-2" d="M877.23,1111.03l-33.44-47.03c-3.76.42-7.52.63-11.71.63h-39.3v46.4h-15.47v-146.32h54.76c37.21,0,59.78,18.81,59.78,50.16,0,22.99-12.12,39.09-33.44,45.99l35.74,50.17h-16.93ZM876.39,1014.88c0-23.41-15.47-36.79-44.73-36.79h-38.88v73.37h38.88c29.26,0,44.73-13.59,44.73-36.58Z"/>
        <path class="cls-2" d="M924.04,1056.06c0-32.61,23.83-55.81,56.02-55.81s55.81,23.2,55.81,55.81-23.62,56.02-55.81,56.02-56.02-23.41-56.02-56.02ZM1020.81,1056.06c0-25.71-17.35-42.85-40.76-42.85s-40.97,17.14-40.97,42.85,17.56,42.85,40.97,42.85,40.76-17.14,40.76-42.85Z"/>
        <path class="cls-2" d="M1060.73,1098.49l6.69-11.7c8.78,6.9,23.62,12.33,39.09,12.33,20.9,0,29.47-7.11,29.47-17.98,0-28.64-71.28-6.06-71.28-49.54,0-17.98,15.47-31.36,43.48-31.36,14.21,0,29.68,3.97,38.88,10.24l-6.48,11.92c-9.61-6.69-21.11-9.41-32.4-9.41-19.86,0-28.64,7.74-28.64,18.19,0,29.68,71.28,7.32,71.28,49.54,0,19.02-16.72,31.35-45.36,31.35-18.19,0-35.74-5.85-44.73-13.58Z"/>
        <path class="cls-2" d="M1172.75,1098.49l6.69-11.7c8.78,6.9,23.62,12.33,39.09,12.33,20.9,0,29.47-7.11,29.47-17.98,0-28.64-71.28-6.06-71.28-49.54,0-17.98,15.47-31.36,43.48-31.36,14.21,0,29.68,3.97,38.88,10.24l-6.48,11.92c-9.61-6.69-21.11-9.41-32.4-9.41-19.86,0-28.64,7.74-28.64,18.19,0,29.68,71.28,7.32,71.28,49.54,0,19.02-16.72,31.35-45.36,31.35-18.19,0-35.74-5.85-44.73-13.58Z"/>
        <path class="cls-2" d="M1296.69,966.39c0-5.65,4.81-10.45,10.87-10.45s10.87,4.6,10.87,10.24c0,6.06-4.6,10.87-10.87,10.87s-10.87-4.81-10.87-10.66ZM1300.04,1001.08h14.84v109.94h-14.84v-109.94Z"/>
      </g>
      <g class="cls-1">
        <path class="cls-2" d="M358.25,1182.95h6.4l30.87,77.18h-6.5l-9.92-24.92h-35.28l-9.92,24.92h-6.5l30.87-77.18ZM361.45,1190.34l-15.77,39.8h31.53l-15.77-39.8Z"/>
        <path class="cls-2" d="M454.95,1182.95c11.58,0,22.38,5.74,22.38,19.18,0,7.39-3.31,13.67-10.58,17.2,8.93,2.87,14.33,9.7,14.33,19.18,0,15.11-12.24,21.61-25.58,21.61h-28.11v-77.18h27.56ZM433.35,1187.81v29.22h21.61c10.36,0,16.43-5.07,16.43-14.55,0-10.25-8.38-14.66-17.31-14.66h-20.73ZM433.46,1221.87v33.3h21.72c10.36,0,19.63-5.4,19.63-16.76,0-10.7-7.61-16.54-19.41-16.54h-21.94Z"/>
        <path class="cls-2" d="M587.05,1221.54c0,21.39-13.56,40.24-36.94,40.24s-37.05-18.85-37.05-40.24,13.56-40.24,37.05-40.24,36.94,18.85,36.94,40.24ZM519.35,1221.54c0,17.97,10.92,34.84,30.76,34.84s30.65-16.87,30.65-34.84-10.91-34.95-30.65-34.95-30.76,16.87-30.76,34.95Z"/>
        <path class="cls-2" d="M656.41,1222.54h36.05v37.6h-5.07l-.44-20.07c-4.41,12.46-14.55,21.72-30.32,21.72-23.26,0-36.94-18.74-36.94-40.24s13.67-40.24,36.94-40.24c18.19,0,31.98,11.03,35.06,27.34h-6.39c-2.65-13.45-13.89-22.05-28.78-22.05-19.52,0-30.65,17.09-30.65,34.95s11.13,34.95,30.87,34.95c17.31,0,26.9-12.68,28.78-28.67h-29.11v-5.29Z"/>
        <path class="cls-2" d="M755.65,1182.95h6.4l30.87,77.18h-6.5l-9.92-24.92h-35.28l-9.92,24.92h-6.5l30.87-77.18ZM758.85,1190.34l-15.77,39.8h31.53l-15.77-39.8Z"/>
        <path class="cls-2" d="M886.32,1221.54c0,22.49-16.21,38.59-38.37,38.59h-23.15v-77.18h23.15c22.16,0,38.37,16.1,38.37,38.59ZM830.86,1188.14v66.81h16.87c19.41,0,32.75-14,32.75-33.41s-13.34-33.41-32.75-33.41h-16.87Z"/>
        <path class="cls-2" d="M992.94,1221.54c0,21.39-13.56,40.24-36.94,40.24s-37.05-18.85-37.05-40.24,13.56-40.24,37.05-40.24,36.94,18.85,36.94,40.24ZM925.24,1221.54c0,17.97,10.92,34.84,30.76,34.84s30.65-16.87,30.65-34.84-10.91-34.95-30.65-34.95-30.76,16.87-30.76,34.95Z"/>
      </g>
    </g>
  </g>
</svg>