<?xml version="1.0" encoding="UTF-8"?>
<svg id="Capa_2" data-name="Capa 2" xmlns="http://www.w3.org/2000/svg" viewBox="0 0 3473.32 2216.57">
  <defs>
    <style>
      .cls-1 {
        fill: #01101e;
      }
    </style>
  </defs>
  <g id="Capa_1-2" data-name="Capa 1">
    <g>
      <path class="cls-1" d="M2051.91,601.64l-801.13,1345.77h-145.66L303.99,611.14v1605.43H0V0h259.66l924.62,1557.93L2096.24,0h259.65"/>
      <path class="cls-1" d="M2051.91,601.64l-801.13,1345.77h-145.66L303.99,611.14v1605.43H0V0h259.66l924.62,1557.93L2096.24,0h259.65"/>
      <path class="cls-1" d="M2051.91,601.64l-801.13,1345.77h-145.66L303.99,611.14v1605.43H0V0h259.66l924.62,1557.93L2096.24,0h259.65"/>
      <path class="cls-1" d="M2051.91,601.64l-801.13,1345.77h-145.66L303.99,611.14v1605.43H0V0h259.66l924.62,1557.93L2096.24,0h259.65"/>
      <path class="cls-1" d="M1646.23,1763.64v452.93h316.65v-674.47h547.81c47.5,0,95-3.17,139.33-6.33l478.15,680.8h345.15l-525.64-744.13c310.32-110.83,487.64-357.82,487.64-699.8,0-447.38-300.99-730.56-806.24-768.27l-136.99,271.12h9.1c405.32,0,617.47,180.49,617.47,497.14s-212.16,500.31-617.47,500.31h-538.31"/>
    </g>
  </g>
</svg>