<?xml version="1.0" encoding="UTF-8"?>
<svg id="Capa_2" data-name="Capa 2" xmlns="http://www.w3.org/2000/svg" viewBox="0 0 2585.48 2585.47">
  <defs>
    <style>
      .cls-1 {
        fill: #01101e;
      }

      .cls-2 {
        fill: #e6e6e6;
      }
    </style>
  </defs>
  <g id="Capa_1-2" data-name="Capa 1">
    <g>
      <g>
        <circle class="cls-2" cx="1292.74" cy="1292.73" r="1281.82"/>
        <path class="cls-1" d="M1294.85,2585.47c-39.03,0-78.22-1.76-117.52-5.28-173.8-15.58-339.36-64.74-492.07-146.1-147.5-78.59-276.86-183.76-384.5-312.59-107.63-128.84-188.12-274.84-239.22-433.96C8.63,1522.79-10.3,1351.13,5.28,1177.33c15.58-173.8,64.74-339.36,146.1-492.07,78.59-147.5,183.76-276.86,312.59-384.5,128.83-107.64,274.84-188.12,433.96-239.22C1062.69,8.63,1234.36-10.29,1408.15,5.28c173.8,15.58,339.36,64.74,492.07,146.1,147.5,78.59,276.86,183.76,384.49,312.59,107.64,128.83,188.12,274.84,239.22,433.96,52.91,164.75,71.84,336.41,56.26,510.21-15.58,173.8-64.74,339.36-146.1,492.07-78.59,147.5-183.76,276.86-312.59,384.5-128.84,107.63-274.84,188.12-433.96,239.22-127.49,40.94-259.13,61.54-392.69,61.54ZM1291.79,21.66C641.74,21.66,85.93,519.6,26.8,1179.26c-62.57,698.04,454.42,1316.84,1152.46,1379.42,38.39,3.44,76.6,5.13,114.42,5.13,650.06.03,1205.86-497.94,1264.99-1157.59,30.31-338.14-72.87-667.85-290.54-928.39C2050.47,217.28,1744.36,57.1,1406.22,26.8c-38.39-3.44-76.6-5.13-114.43-5.13Z"/>
      </g>
      <g>
        <circle class="cls-2" cx="1292.74" cy="1292.73" r="907.4"/>
        <path class="cls-1" d="M1292.74,2210.94c-245.26,0-475.84-95.51-649.27-268.94-173.43-173.43-268.94-404.01-268.94-649.27s95.51-475.84,268.94-649.27c173.42-173.43,404.01-268.94,649.27-268.94s475.84,95.51,649.27,268.94c173.43,173.43,268.94,404.01,268.94,649.27s-95.51,475.84-268.94,649.27c-173.43,173.43-404.01,268.94-649.27,268.94ZM1292.74,396.13c-494.39,0-896.6,402.21-896.6,896.6s402.21,896.6,896.6,896.6,896.6-402.22,896.6-896.6-402.21-896.6-896.6-896.6Z"/>
      </g>
      <g>
        <path class="cls-1" d="M543.4,432.36l86.53,84.54-8.57,8.78-69.22-67.63,25.01,90.88-4.23,4.32-91.06-22.53,68.85,67.27-8.58,8.78-86.53-84.54,7.37-7.54,100.87,25.1-27.8-99.89,7.36-7.54Z"/>
        <path class="cls-1" d="M750.07,387.5l-55.87,37.72,6.05,34.91-11.03,7.45-21.86-131.22,10.46-7.06,113.54,69.33-11.17,7.54-30.12-18.66ZM740.41,381.51l-60.44-37.62,12.3,70.11,48.14-32.49Z"/>
        <path class="cls-1" d="M936.5,329.82l-40.81-24.71c-2.72,1.55-5.51,2.95-8.68,4.32l-29.82,12.9,15.23,35.21-11.74,5.08-48.03-111.03,41.55-17.97c28.23-12.22,51.54-5.35,61.83,18.44,7.55,17.45,3.63,33.64-10.28,45.87l43.59,26.34-12.85,5.56ZM904.31,257.14c-7.68-17.77-23.81-22.84-46.02-13.23l-29.5,12.76,24.08,55.67,29.5-12.76c22.21-9.6,29.48-24.99,21.94-42.44Z"/>
        <path class="cls-1" d="M1008.06,241.84c-7.82-34.55,12.72-65.95,48.28-74,17.19-3.89,33.99-1.66,47.04,7.43l-6.13,9.72c-11.82-7.6-24.57-9.15-38.05-6.1-28.48,6.45-45.16,32.19-38.83,60.16,6.33,27.98,32.46,44.04,60.95,37.59,13.48-3.05,24.33-9.93,31.69-22.05l9.71,6.13c-7.86,13.83-22.03,23.23-39.39,27.16-35.39,8.01-67.45-11.5-75.26-46.05Z"/>
        <path class="cls-1" d="M1195.57,206.67c-1.16-35.24,24.93-62.38,61.55-63.59,36.28-1.19,64.26,24,65.42,59.42,1.16,35.41-25.1,62.39-61.38,63.58-36.62,1.2-64.43-24.17-65.59-59.41ZM1309.75,202.92c-.95-28.85-23.24-49.39-52.26-48.43-29.19.96-50.26,22.92-49.31,51.77.95,28.85,23.41,49.38,52.61,48.42,29.02-.96,49.92-22.91,48.97-51.76Z"/>
        <path class="cls-1" d="M1596.31,311.2l-16.2-44.89c-3.09-.5-6.14-1.17-9.47-2.1l-31.31-8.72-10.3,36.96-12.32-3.43,32.48-116.56,43.63,12.15c29.64,8.26,43.45,28.26,36.49,53.23-5.1,18.32-18.33,28.45-36.85,29.21l17.34,47.9-13.49-3.76ZM1616.98,234.41c5.2-18.65-4.16-32.74-27.47-39.23l-30.97-8.63-16.28,58.45,30.97,8.63c23.31,6.49,38.65-.89,43.75-19.21Z"/>
        <path class="cls-1" d="M1707.42,287.2c15.87-31.48,51.77-42.8,84.48-26.31,32.4,16.34,44.89,51.85,28.94,83.48-15.95,31.63-51.92,42.72-84.33,26.39-32.71-16.49-44.96-52.08-29.09-83.56ZM1809.42,338.61c12.99-25.77,3.27-54.47-22.65-67.54-26.08-13.15-55.09-3.97-68.08,21.8-12.99,25.77-3.12,54.55,22.96,67.7,25.92,13.07,54.78,3.81,67.77-21.96Z"/>
        <path class="cls-1" d="M1865.51,428.17l9.96-4.79c1.73,11.98,10.18,26.26,22.82,35.91,18,13.74,31.6,12.17,38.84,2.68,20.14-26.38-51.45-55.38-24.28-90.96,10.81-14.15,31.13-17.99,55.59.68,10.85,8.29,19.71,20.05,23.31,31.28l-9.62,5.48c-4.15-11.65-11.78-21.6-20.3-28.11-17.59-13.43-31.4-11.57-38.74-1.96-20.14,26.38,51.24,55.65,24.5,90.69-10.81,14.15-31.3,17.64-55.9-1.13-14.42-11.01-24.7-26.9-26.17-39.78Z"/>
        <path class="cls-1" d="M1994.8,535.01l10.61-3.08c-.27,12.1,5.69,27.57,16.56,39.18,15.47,16.52,29.14,17.22,37.84,9.06,24.22-22.68-41.57-63.1-8.9-93.69,12.99-12.16,33.67-12.59,54.69,9.87,9.33,9.96,16.11,23.02,17.81,34.7l-10.39,3.82c-2.17-12.18-8.03-23.25-15.36-31.07-15.12-16.14-29.04-16.6-37.87-8.34-24.22,22.68,41.32,63.34,9.15,93.46-12.99,12.17-33.78,12.22-54.92-10.36-12.4-13.25-19.9-30.6-19.23-43.54Z"/>
        <path class="cls-1" d="M2198.25,611.62l7.35,10.47-99.05,69.45-7.34-10.47,99.04-69.45Z"/>
      </g>
      <g>
        <path class="cls-1" d="M721.32,2249.6l-55.99-37.53-30.06,18.77-11.06-7.41,113.31-69.71,10.48,7.03-21.42,131.3-11.2-7.5,5.94-34.94ZM723.22,2238.39l12.06-70.16-60.31,37.82,48.25,32.34Z"/>
        <path class="cls-1" d="M921.41,2348.77c-8.08,18.91-26.68,23.74-54.49,11.85l-51.17-21.87,47.55-111.23,47.99,20.51c24.79,10.6,34.61,27.2,26.86,45.31-5.43,12.71-15.86,18.21-27.8,18,12.94,9.29,17.52,22.33,11.06,37.43ZM910.06,2342.78c6.18-14.46-1.75-25.37-21.29-33.72l-39.25-16.78-17.87,41.79,39.25,16.78c19.55,8.36,32.91,6.55,39.16-8.07ZM870.92,2242.23l-17.25,40.37,35.44,15.14c17.8,7.61,31.05,5.19,36.75-8.15,5.71-13.35-1.7-24.6-19.5-32.21l-35.43-15.15Z"/>
        <path class="cls-1" d="M1016.04,2349.97c7.2-34.51,38.95-54.73,74.82-47.25,35.53,7.41,56.77,38.49,49.54,73.17-7.23,34.69-39.12,54.7-74.65,47.29-35.87-7.48-56.89-38.7-49.7-73.22ZM1127.88,2373.29c5.89-28.26-10.92-53.47-39.34-59.4-28.59-5.96-54.25,10.4-60.14,38.66-5.89,28.25,11.09,53.51,39.68,59.47,28.42,5.93,53.91-10.47,59.8-38.73Z"/>
        <path class="cls-1" d="M1323.3,2385.12l12.27.07-.27,46.15c-11.47,10.13-27.75,15.21-44.51,15.12-36.81-.22-63.62-26.47-63.41-61.9.2-35.43,27.32-61.37,64.31-61.15,18.32.11,34.18,6.07,44.83,17.72l-8,8.08c-10.14-10.08-22.21-14.31-36.38-14.38-29.9-.18-51.97,20.95-52.14,49.81-.17,28.69,21.65,50.25,51.38,50.42,11.59.07,22.31-2.46,31.68-9.15l.24-40.79Z"/>
        <path class="cls-1" d="M1520.07,2389.34l-66.31,12.1-8.48,34.39-13.09,2.39,32.69-128.94,12.41-2.26,76.12,109.09-13.26,2.42-20.08-29.19ZM1513.62,2379.98l-40.22-58.72-16.9,69.14,57.12-10.42Z"/>
        <path class="cls-1" d="M1606.16,2274.98l45.86-17.98c36.05-14.13,69.43-.49,82.43,32.66,13,33.15-2.22,65.84-38.26,79.98l-45.86,17.98-44.16-112.64ZM1691.5,2359.59c29.93-11.74,41.8-38.29,31.2-65.33-10.6-27.03-37.36-38.45-67.29-26.71l-33.31,13.06,36.09,92.04,33.31-13.06Z"/>
        <path class="cls-1" d="M1812.21,2249.72c-19.25-29.53-11.02-66.26,19.66-86.28,30.4-19.83,67.38-12.79,86.74,16.88,19.36,29.67,10.89,66.35-19.51,86.18-30.69,20.01-67.62,12.74-86.89-16.79ZM1907.9,2187.31c-15.77-24.18-45.47-30.18-69.8-14.32-24.46,15.96-31.09,45.66-15.32,69.83,15.77,24.17,45.62,30.08,70.08,14.12,24.32-15.86,30.8-45.47,15.04-69.64Z"/>
      </g>
      <g>
        <path class="cls-1" d="M1422.19,1117.27l-283.23,475.78h-51.5l-283.23-472.42v567.57h-107.47v-783.63h91.8l326.89,550.78,322.41-550.78h91.8"/>
        <path class="cls-1" d="M1422.19,1117.27l-283.23,475.78h-51.5l-283.23-472.42v567.57h-107.47v-783.63h91.8l326.89,550.78,322.41-550.78h91.8"/>
        <path class="cls-1" d="M1422.19,1117.27l-283.23,475.78h-51.5l-283.23-472.42v567.57h-107.47v-783.63h91.8l326.89,550.78,322.41-550.78h91.8"/>
        <path class="cls-1" d="M1422.19,1117.27l-283.23,475.78h-51.5l-283.23-472.42v567.57h-107.47v-783.63h91.8l326.89,550.78,322.41-550.78h91.8"/>
        <path class="cls-1" d="M1278.77,1528.07v160.13h111.95v-238.45h193.67c16.79,0,33.58-1.12,49.26-2.24l169.04,240.69h122.02l-185.83-263.08c109.71-39.18,172.4-126.5,172.4-247.4,0-158.17-106.41-258.28-285.03-271.61l-48.43,95.85h3.22c143.29,0,218.3,63.81,218.3,175.76s-75,176.88-218.3,176.88h-190.31"/>
      </g>
    </g>
  </g>
</svg>